<svg width="560" height="560" xmlns="http://www.w3.org/2000/svg" xml:space="preserve" version="1.1">
 <g>
  <title>Layer 1</title>
  <g stroke="null" id="XMLID_00000163073540689159926610000007568645158377555584_">
   <g stroke="null" id="svg_1">
    <polygon stroke="null" id="svg_2" fill="#fff" points="515.0150146484375,280.01153564453125 515.0150146484375,415.6881408691406 397.504638671875,347.8498840332031 397.504638671875,347.8152770996094 514.98046875,279.9769592285156 "/>
    <polygon stroke="null" id="svg_3" fill="#fff" points="515.0150146484375,144.31187438964844 515.0150146484375,279.9769592285156 514.98046875,279.9769592285156 397.504638671875,212.17318725585938 397.504638671875,212.13865661621094 514.98046875,144.31187438964844 "/>
    <polygon stroke="null" id="svg_4" fill="#fff" points="397.504638671875,347.8498840332031 515.0150146484375,415.6881408691406 397.504638671875,483.5264892578125 "/>
    <polygon stroke="null" id="svg_5" fill="#fff" points="514.98046875,279.9769592285156 397.504638671875,347.8152770996094 397.504638671875,212.17318725585938 "/>
    <polygon stroke="null" id="svg_6" fill="#fff" points="397.504638671875,347.8498840332031 397.504638671875,483.5264892578125 280.0057678222656,415.6881408691406 397.504638671875,347.8152770996094 "/>
    <polygon stroke="null" id="svg_7" fill="#FFC25F" points="397.504638671875,212.17318725585938 397.504638671875,347.8152770996094 280.0057678222656,279.9769592285156 397.4815673828125,212.13865661621094 397.504638671875,212.13865661621094 " class="st0"/>
    <polygon stroke="null" id="svg_8" fill="#F7931E" points="397.504638671875,76.4735336303711 397.504638671875,212.13865661621094 397.4815673828125,212.13865661621094 280.0057678222656,144.31187438964844 " class="st1"/>
    <polygon stroke="null" id="svg_9" fill="#fff" points="397.504638671875,76.4735336303711 280.0057678222656,144.31187438964844 280.0057678222656,8.635223388671875 "/>
    <polygon stroke="null" id="svg_10" fill="#FFC25F" points="397.504638671875,347.8152770996094 280.0057678222656,415.6881408691406 280.0057678222656,279.9769592285156 " class="st0"/>
    <polygon stroke="null" id="svg_11" fill="#fff" points="397.504638671875,483.5264892578125 280.0057678222656,551.3647766113281 280.0057678222656,415.6881408691406 "/>
    <polygon stroke="null" id="svg_12" fill="#F7931E" points="397.4815673828125,212.13865661621094 280.0057678222656,279.9769592285156 280.0057678222656,144.31187438964844 " class="st1"/>
    <polygon stroke="null" id="svg_13" fill="#fff" points="280.0057678222656,415.6881408691406 280.0057678222656,551.3647766113281 162.49537658691406,483.5264892578125 "/>
    <polygon stroke="null" id="svg_14" fill="#F7931E" points="280.0057678222656,279.9769592285156 280.0057678222656,415.6881408691406 162.49537658691406,347.8498840332031 162.49537658691406,347.8152770996094 " class="st1"/>
    <polygon stroke="null" id="svg_15" fill="#F7931E" points="280.0057678222656,144.31187438964844 280.0057678222656,279.9769592285156 162.49537658691406,212.13865661621094 " class="st1"/>
    <polygon stroke="null" id="svg_16" fill="#fff" points="280.0057678222656,8.635223388671875 280.0057678222656,144.31187438964844 162.49537658691406,76.4735336303711 "/>
    <polygon stroke="null" id="svg_17" fill="#fff" points="280.0057678222656,144.31187438964844 162.49537658691406,212.13865661621094 162.49537658691406,76.4735336303711 "/>
    <polygon stroke="null" id="svg_18" fill="#F7931E" points="280.0057678222656,279.9769592285156 162.49537658691406,347.8152770996094 162.49537658691406,212.13865661621094 " class="st1"/>
    <polygon stroke="null" id="svg_19" fill="#fff" points="280.0057678222656,415.6881408691406 162.49537658691406,483.5264892578125 162.49537658691406,347.8498840332031 "/>
    <polygon stroke="null" id="svg_20" fill="#fff" points="162.49537658691406,347.8498840332031 162.49537658691406,483.5264892578125 44.98500061035156,415.6881408691406 45.87199783325195,415.1812744140625 "/>
    <polygon stroke="null" id="svg_21" fill="#fff" points="162.49537658691406,347.8152770996094 162.49537658691406,347.8498840332031 44.98500061035156,280.01153564453125 162.49537658691406,212.13865661621094 "/>
    <polygon stroke="null" id="svg_22" fill="#fff" points="162.49537658691406,76.4735336303711 162.49537658691406,212.13865661621094 44.98500061035156,144.31187438964844 "/>
    <polygon stroke="null" id="svg_23" fill="#fff" points="162.49537658691406,212.13865661621094 44.98500061035156,280.01153564453125 44.98500061035156,144.31187438964844 "/>
    <polygon stroke="null" id="svg_24" fill="#fff" points="162.49537658691406,347.8498840332031 45.87199783325195,415.1812744140625 44.98500061035156,413.64923095703125 44.98500061035156,280.01153564453125 "/>
   </g>
  </g>
 </g>
</svg>