<?xml version="1.0" encoding="utf-8"?>
<!-- Generator: Adobe Illustrator 28.0.0, SVG Export Plug-In . SVG Version: 6.00 Build 0)  -->
<svg version="1.1" id="图层_1" xmlns="http://www.w3.org/2000/svg" xmlns:xlink="http://www.w3.org/1999/xlink" x="0px" y="0px"
	 viewBox="0 0 200 200" style="enable-background:new 0 0 200 200;" xml:space="preserve">
<style type="text/css">
	.st0{fill:#FAAC3E;}
	.st1{fill:#FFFFFF;}
	.st2{fill:#DE553E;}
</style>
<polygon class="st0" points="17.03,52.1 17.03,147.9 100,195.81 182.97,147.9 182.97,52.1 100,4.19 "/>
<polygon class="st1" points="173.87,99.99 173.86,99.99 173.87,100 173.87,142.65 136.93,163.97 100,185.3 26.13,142.65 
	26.41,142.49 26.13,142.01 26.13,57.35 100,14.7 136.93,36.03 136.93,78.67 173.86,57.35 173.87,57.35 "/>
<polygon class="st2" points="136.93,36.03 136.93,121.32 100,142.65 63.07,121.33 63.07,78.67 100,57.35 "/>
<polygon class="st0" points="136.93,78.67 136.93,121.32 100,142.65 100,99.99 136.93,78.67 "/>
</svg>
