<?xml version="1.0" encoding="utf-8"?>
<svg version="1.1" id="layer1" xmlns="http://www.w3.org/2000/svg" xmlns:xlink="http://www.w3.org/1999/xlink" x="0px" y="0px"
	 viewBox="0 0 560 560" style="enable-background:new 0 0 560 560;" xml:space="preserve">
<style type="text/css">
	.st0{fill:#FFB636;}
	.st1{fill:#F7931E;}
</style>
<g>
	<path class="st0" d="M451.76,126.01c3.91,21.37,5.7,39.78,6.56,54.03c1.23,20.31,0.78,36.01,0.46,46.34
		c-0.25,8.04-0.86,28.04-3.01,44.03c-0.6,4.43-6.48,45.57-27.92,79.78c-23.18,36.97-73.32,79.85-139.61,79.39
		c-9.87-0.07-73.45-1.54-115.39-51.65c-55.81-66.69-32.39-170.64,8.06-207.08c10.83-9.75,42.88-32.69,46.03-34.95
		c14.43-10.31,29.44-21,46.75-31.3c18.36-10.93,45.08-24.76,80.46-36.46L307.6,41.26c-18.42-10.63-41.11-10.63-59.53,0l-167.2,96.54
		c-18.42,10.63-29.76,30.29-29.76,51.55v193.07c0,21.27,11.35,40.92,29.76,51.55l167.2,96.54c18.42,10.63,41.11,10.63,59.53,0
		l167.2-96.54c18.42-10.63,29.76-30.29,29.76-51.55V189.35c0.05-5.92-0.71-16.6-6.81-27.64c-4.72-8.53-10.55-13.52-16.5-18.51
		C475.29,138.19,465.6,131.27,451.76,126.01z"/>
</g>
<g>
	<path class="st1" d="M359.03,192.18c0.85,6.11,1.85,12.33,3.84,18.12c9.74,28.49,10.8,56.46-3.8,83.74
		c27.93-27.43,33.11-61.89,30.77-98.95c1.07,0.36,2.49,0.39,2.88,1.03c51.16,80.94,1.63,167.2-60.29,189.62
		c-23.76,8.59-47.41,10.1-69.46,4.88c-33.9-8.01-54.16-28.83-61.21-36.86c-4.52-5.15-26.94-31.56-28.95-67.71
		c-2.57-46.07,28.88-92.34,79.09-116.34c-4.34,3.45-29.54,24.09-28.3,53.64c0.29,6.77,0.97,23.07,13.75,31.12
		c9.27,5.84,21.93,5.45,30.63-0.1c5.63-3.59,9.38-9.15,14.33-26.31c5.23-18.15,7.89-35.24,9.14-47.94
		c0.26-2.6,8.05-33.36,25.71-50.35c4.29-4.13,19.66-17.34,43.56-23.11c25.44-6.15,48.39,1.28,69.92,20
		c-8.74-0.04-15.21-0.75-21.53,0C375.2,130.72,354.38,158,359.03,192.18z"/>
</g>
</svg>
