<svg height="200px" width="200px" version="1.1" id="Layer_1" xmlns="http://www.w3.org/2000/svg" xmlns:xlink="http://www.w3.org/1999/xlink" viewBox="0 0 512 512" xml:space="preserve" fill="#000000"><g id="SVGRepo_bgCarrier" stroke-width="0"></g><g id="SVGRepo_tracerCarrier" stroke-linecap="round" stroke-linejoin="round"></g><g id="SVGRepo_iconCarrier"> <path style="fill:#005bac;" d="M500.385,199.374c7.188-4.16,11.615-11.837,11.615-20.142V77.576 c0-12.853-10.42-23.273-23.273-23.273H263.753H23.273C10.42,54.303,0,64.723,0,77.576v101.652c0,8.307,4.426,15.984,11.615,20.142 c20.179,11.678,32.714,33.378,32.714,56.627s-12.535,44.947-32.714,56.624C4.428,316.782,0,324.457,0,332.764v101.66 c0,12.853,10.42,23.273,23.273,23.273h240.48h224.974c12.853,0,23.273-10.42,23.273-23.273V332.767 c0-8.307-4.428-15.982-11.615-20.142c-20.179-11.677-32.714-33.376-32.714-56.627C467.672,232.749,480.206,211.051,500.385,199.374z "></path> <path style="fill:#81b9fd;" d="M23.273,54.303C10.42,54.303,0,64.723,0,77.576v101.652c0,8.307,4.425,15.984,11.615,20.142 c20.179,11.678,32.714,33.378,32.714,56.627s-12.535,44.947-32.714,56.624C4.426,316.782,0,324.457,0,332.764v101.66 c0,12.853,10.42,23.273,23.273,23.273h240.48V54.303H23.273z"></path> <path style="fill:#ffffff;" d="M349.089,224.96l-61.618,0.003c-0.008,0-0.016,0-0.023,0l-88.09,0.006l-16.493-27.49 c-6.613-11.02-20.908-14.597-31.93-7.983c-11.022,6.614-14.595,20.908-7.983,31.93l23.273,38.788 c4.206,7.011,11.782,11.298,19.957,11.298l50.244-0.003l-13.616,15.891c-8.364,9.761-7.23,24.452,2.531,32.815 c4.389,3.761,9.773,5.599,15.132,5.599c6.56,0,13.081-2.759,17.683-8.13l39.568-46.179l51.368-0.003 c12.853-0.002,23.273-10.422,23.271-23.276C372.362,235.379,361.942,224.959,349.089,224.96z"></path> </g></svg>