<?xml version="1.0" encoding="UTF-8"?><svg xmlns="http://www.w3.org/2000/svg" viewBox="0 0 492.07 153.08"><g id="uuid-0c844943-d688-4c78-8f5f-cafd66cf6e6c"><g id="uuid-c10c04ee-b4c6-4d29-ba46-79d371174569"><path d="m192.49,108.08c-21.02,0-31.53-11.33-31.53-33.99,0-10.74,2.65-19.06,7.94-24.96s12.78-8.85,22.47-8.85c4.36,0,8.23.7,11.61,2.11,3.37,1.41,5.93,3.41,7.66,6.01l-6.87,9.01c-1.39-1.73-3.17-3.07-5.32-4.02-2.15-.94-4.48-1.42-6.99-1.42-5.32,0-9.59,1.88-12.79,5.64-3.2,3.76-4.81,9.09-4.81,16,0,15.17,6.73,22.75,20.2,22.75,4.49,0,8.92-.93,13.28-2.79l2.14,11.33c-5.39,2.11-11.05,3.16-16.99,3.16Z" style="stroke-width:0px;" stroke="currentColor"/><path d="m216.4,107.15v-10.77h34.45v10.77h-34.45Zm1.86-38.45v-10.77h18.57l.93,10.77h-19.5Zm8.54,38.45v-49.22h10.68l1.86,14.12v35.1h-12.54Zm12.54-21.17l-2.88-16.95h4.23c.49-8.02,4.69-12.03,12.58-12.03,4.67,0,8.26,1.72,10.75,5.15,2.49,3.44,3.74,8.39,3.74,14.86h-12.54c0-2.91-.53-5-1.6-6.27-1.07-1.27-2.78-1.9-5.13-1.9-3.06,0-5.36,1.49-6.87,4.46-1.52,2.97-2.28,7.2-2.28,12.68Z" style="stroke-width:0px;" stroke="currentColor"/><path d="m289.44,108.08c-5.23,0-9.3-1.28-12.21-3.85-2.91-2.57-4.36-6.22-4.36-10.96,0-5.51,1.9-9.73,5.71-12.68,3.81-2.94,9.21-4.41,16.21-4.41,2.69,0,5.02.14,6.99.42,1.96.28,3.95.71,5.97,1.3l-2.04,9.8c-1.98-.46-3.76-.73-5.34-.81-1.58-.08-3.23-.12-4.97-.12-6.5,0-9.75,1.86-9.75,5.57,0,1.67.59,2.95,1.76,3.83,1.18.88,2.89,1.32,5.15,1.32,2.72,0,5-.51,6.83-1.53,1.83-1.02,3.2-2.32,4.11-3.9.91-1.58,1.37-3.2,1.37-4.88v-3.06l1.76,12.63h-3.95l1.62-1.49c-.09,2.85-.74,5.22-1.95,7.13-1.21,1.9-2.9,3.33-5.08,4.27-2.18.94-4.79,1.42-7.82,1.42Zm16.67-.46l-1.07-14.58-.19-6.41v-9.61c0-2.63-1.12-4.56-3.37-5.78-2.24-1.22-5.58-1.9-10.01-2.02l-12.58-.33.93-11.42,10.73.14c8.92.12,15.54,1.88,19.87,5.27s6.5,8.33,6.5,14.84v18.2l6.83,1.02v10.22l-17.65.46Z" style="stroke-width:0px;" stroke="currentColor"/><path d="m327.38,69.5v-11.56h46.16v11.56h-46.16Zm11.79,13.65v-40.07h12.54v40.07h-12.54Zm24.05,24.93c-8.48,0-14.61-1.7-18.39-5.11-3.78-3.41-5.67-8.85-5.67-16.34v-6.41h12.54v5.2c0,3.75.97,6.47,2.9,8.17,1.93,1.7,5.11,2.55,9.54,2.55,1.42,0,2.95-.08,4.57-.25,1.63-.17,3.47-.39,5.55-.67l1.11,11.75c-2.04.37-4.03.65-5.97.84-1.94.19-4,.28-6.2.28Z" style="stroke-width:0px;" stroke="currentColor"/><path d="m412.4,108.08c-8.51,0-15.09-2.21-19.73-6.62s-6.96-10.75-6.96-19.01,1.97-14.3,5.92-18.76c3.95-4.46,9.51-6.69,16.69-6.69s12.46,2.06,16.3,6.18c3.84,4.12,5.76,10.11,5.76,17.97,0,2.23-.09,4.35-.28,6.36h-36.12v-8.73h24.05c0-3.31-.84-5.85-2.53-7.62-1.69-1.76-4.05-2.65-7.08-2.65-3.28,0-5.83,1.17-7.64,3.51-1.81,2.34-2.72,5.66-2.72,9.96,0,4.64,1.34,8.17,4.02,10.59s6.49,3.62,11.45,3.62c2.23,0,4.43-.12,6.59-.35,2.17-.23,4.38-.55,6.64-.95l1.21,11.89c-3.16.56-6.04.91-8.64,1.07-2.6.15-4.91.23-6.92.23Z" style="stroke-width:0px;" stroke="currentColor"/><path d="m439.28,107.15v-10.77h34.45v10.77h-34.45Zm1.86-38.45v-10.77h18.57l.93,10.77h-19.5Zm8.54,38.45v-49.22h10.68l1.86,14.12v35.1h-12.54Zm12.54-21.17l-2.88-16.95h4.23c.5-8.02,4.69-12.03,12.58-12.03,4.67,0,8.26,1.72,10.75,5.15,2.49,3.44,3.74,8.39,3.74,14.86h-12.54c0-2.91-.53-5-1.6-6.27-1.07-1.27-2.78-1.9-5.13-1.9-3.06,0-5.36,1.49-6.87,4.46-1.52,2.97-2.28,7.2-2.28,12.68Z" style="stroke-width:0px;" stroke="currentColor"/></g></g><g id="uuid-fab274b5-9aaf-4906-b66c-f425a04468eb"><path d="m116.8,26.1c1.1,6.02,1.6,11.2,1.85,15.21.34,5.72.22,10.14.13,13.04-.07,2.26-.24,7.89-.85,12.39-.17,1.25-1.82,12.83-7.86,22.45-6.52,10.41-20.64,22.48-39.29,22.34-2.78-.02-20.67-.43-32.48-14.54-15.71-18.77-9.12-48.03,2.27-58.28,3.05-2.75,12.07-9.2,12.96-9.84,4.06-2.9,8.29-5.91,13.16-8.81,5.17-3.08,12.69-6.97,22.65-10.26l-13.1-7.56c-5.18-2.99-11.57-2.99-16.75,0L12.41,29.41c-5.18,2.99-8.38,8.52-8.38,14.51v54.34c0,5.99,3.19,11.52,8.38,14.51l47.06,27.17c5.18,2.99,11.57,2.99,16.75,0l47.06-27.17c5.18-2.99,8.38-8.52,8.38-14.51v-54.34c.01-1.67-.2-4.67-1.92-7.78-1.33-2.4-2.97-3.8-4.64-5.21-1.68-1.41-4.41-3.36-8.3-4.84Z" style="fill:#ffb636; stroke-width:0px;"/><path d="m90.7,44.72c.24,1.72.52,3.47,1.08,5.1,2.74,8.02,3.04,15.89-1.07,23.57,7.86-7.72,9.32-17.42,8.66-27.85.3.1.7.11.81.29,14.4,22.78.46,47.06-16.97,53.37-6.69,2.42-13.34,2.84-19.55,1.37-9.54-2.26-15.24-8.12-17.23-10.37-1.27-1.45-7.58-8.88-8.15-19.06-.72-12.97,8.13-25.99,22.26-32.74-1.22.97-8.31,6.78-7.96,15.1.08,1.91.27,6.49,3.87,8.76,2.61,1.64,6.17,1.53,8.62-.03,1.58-1.01,2.64-2.58,4.03-7.41,1.47-5.11,2.22-9.92,2.57-13.49.07-.73,2.27-9.39,7.24-14.17,1.21-1.16,5.53-4.88,12.26-6.51,7.16-1.73,13.62.36,19.68,5.63-2.46-.01-4.28-.21-6.06,0-9.54,1.14-15.4,8.82-14.09,18.44Z" style="fill:#f7931e; stroke-width:0px;"/></g></svg>