<?xml version="1.0" encoding="utf-8"?>
<!-- Generator: Adobe Illustrator 28.0.0, SVG Export Plug-In . SVG Version: 6.00 Build 0)  -->
<svg version="1.1" xmlns="http://www.w3.org/2000/svg" xmlns:xlink="http://www.w3.org/1999/xlink" x="0px" y="0px"
	 viewBox="0 0 501.36 154.76" style="enable-background:new 0 0 501.36 154.76;" xml:space="preserve">
<style type="text/css">
	.st0{display:none;}
	.st1{display:inline;}
	.st2{fill:#FF8F1F;}
	.st3{fill:#FFB636;}
	.st4{fill:#FFFFFF;}
	.st5{display:inline;fill:#FF8F1F;}
	.st6{fill:#F15A24;}
	.st7{fill:#F7931E;}
	.st8{fill:#FEFDFD;}
	.st9{fill:#FE8F20;}
	.st10{fill:#FE9123;}
	.st11{fill:#186AB3;}
	.st12{display:none;fill:#F15A24;}
	.st13{display:none;fill:#F7931E;}
	.st14{display:inline;fill:#F9E382;}
</style>
<g id="图层_1">
</g>
<g id="图层_2" class="st0">
	<g class="st1">
		<path class="st2" d="M125.71,11.09H74.6H23.5c-8.47,0-15.33,6.87-15.33,15.33v102.21c0,8.47,6.87,15.33,15.33,15.33H74.6h51.11
			c8.47,0,15.33-6.87,15.33-15.33V26.42C141.05,17.96,134.18,11.09,125.71,11.09z"/>
		<circle class="st3" cx="23.12" cy="26.11" r="5.23"/>
		<circle class="st3" cx="126.09" cy="26.11" r="5.23"/>
		<circle class="st3" cx="23.12" cy="128.48" r="5.23"/>
		<circle class="st3" cx="126.09" cy="128.48" r="5.23"/>
	</g>
	<path class="st2" d="M139.22,104.7V50.36c0-5.99-3.19-11.52-8.38-14.51L83.79,8.68c-5.18-2.99-11.57-2.99-16.75,0L19.97,35.85
		c-5.18,2.99-8.38,8.52-8.38,14.51v54.34c0,5.99,3.19,11.52,8.38,14.51l47.06,27.17c5.18,2.99,11.57,2.99,16.75,0l47.06-27.17
		C136.03,116.22,139.22,110.69,139.22,104.7z"/>
	<g class="st1">
		<path class="st4" d="M74.13,119.51c-31.26,0-39.61-32.59-35.84-53.94c0.16-0.93,1.38-1.2,1.91-0.42c1.64,2.42,3.11,5.91,5.53,5.6
			c3.64-0.46,6.17-32.6,27.75-41.64c0.69-0.29,1.4,0.26,1.33,1c-1.07,10.47,5.22,25.47,16.36,25.47c6.39,0,10.76-5.1,12.94-10.22
			c0.66-1.55,2.94-1.36,3.32,0.29C111.33,62.52,121.75,119.51,74.13,119.51L74.13,119.51z"/>
		<g>
			<g>
				<path class="st3" d="M63.18,88.08c0.74-0.62,1.85-0.19,2.02,0.75c0.39,2.21,1.67,6.01,5.89,6.01c5.07,0,8.51-13.94,9.41-18.04
					c0.15-0.67,0.81-1.13,1.48-1c12.66,2.57,18.82,43.69-9.02,43.69C52.68,119.51,57.27,93.04,63.18,88.08L63.18,88.08z"/>
			</g>
		</g>
		<g>
			<g>
				<path class="st4" d="M97.78,43.55c0.45-3.49-5.93,6.06-5.93,6.06S96.71,51.9,97.78,43.55z"/>
			</g>
		</g>
		<g>
			<g>
				<path class="st4" d="M33.57,95.61c0.13-1.49-1.78-5.46-2.12-3.89C30.65,95.49,33.44,97.1,33.57,95.61z"/>
			</g>
		</g>
	</g>
</g>
<g id="图层_9">
	<g id="文字">
		<g>
			<path class="st4" d="M200.05,114.09c-21.02,0-31.53-11.33-31.53-33.99c0-10.74,2.65-19.06,7.94-24.96s12.78-8.85,22.47-8.85
				c4.36,0,8.23,0.7,11.61,2.11c3.37,1.41,5.93,3.41,7.66,6.01l-6.87,9.01c-1.39-1.73-3.17-3.07-5.32-4.02
				c-2.15-0.94-4.48-1.42-6.99-1.42c-5.32,0-9.59,1.88-12.79,5.64c-3.2,3.76-4.81,9.09-4.81,16c0,15.17,6.73,22.75,20.2,22.75
				c4.49,0,8.92-0.93,13.28-2.79l2.14,11.33C211.66,113.04,205.99,114.09,200.05,114.09z"/>
			<path class="st4" d="M223.96,113.16v-10.77h34.45v10.77H223.96z M225.82,74.71V63.94h18.57l0.93,10.77H225.82z M234.36,113.16
				V63.94h10.68l1.86,14.12v35.1H234.36z M246.9,91.99l-2.88-16.95h4.23c0.49-8.02,4.69-12.03,12.58-12.03
				c4.67,0,8.26,1.72,10.75,5.15c2.49,3.44,3.74,8.39,3.74,14.86h-12.54c0-2.91-0.53-5-1.6-6.27c-1.07-1.27-2.78-1.9-5.13-1.9
				c-3.06,0-5.36,1.49-6.87,4.46C247.66,82.28,246.9,86.51,246.9,91.99z"/>
			<path class="st4" d="M297,114.09c-5.23,0-9.3-1.28-12.21-3.85c-2.91-2.57-4.36-6.22-4.36-10.96c0-5.51,1.9-9.73,5.71-12.68
				c3.81-2.94,9.21-4.41,16.21-4.41c2.69,0,5.02,0.14,6.99,0.42c1.96,0.28,3.95,0.71,5.97,1.3l-2.04,9.8
				c-1.98-0.46-3.76-0.73-5.34-0.81c-1.58-0.08-3.23-0.12-4.97-0.12c-6.5,0-9.75,1.86-9.75,5.57c0,1.67,0.59,2.95,1.76,3.83
				c1.18,0.88,2.89,1.32,5.15,1.32c2.72,0,5-0.51,6.83-1.53c1.83-1.02,3.2-2.32,4.11-3.9c0.91-1.58,1.37-3.2,1.37-4.88v-3.06
				l1.76,12.63h-3.95l1.62-1.49c-0.09,2.85-0.74,5.22-1.95,7.13c-1.21,1.9-2.9,3.33-5.08,4.27
				C302.64,113.62,300.03,114.09,297,114.09z M313.67,113.63l-1.07-14.58l-0.19-6.41v-9.61c0-2.63-1.12-4.56-3.37-5.78
				c-2.24-1.22-5.58-1.9-10.01-2.02l-12.58-0.33l0.93-11.42l10.73,0.14c8.92,0.12,15.54,1.88,19.87,5.27s6.5,8.33,6.5,14.84v18.2
				l6.83,1.02v10.22L313.67,113.63z"/>
			<path class="st4" d="M334.94,75.5V63.94h46.16V75.5H334.94z M346.73,89.16V49.08h12.54v40.07H346.73z M370.78,114.09
				c-8.48,0-14.61-1.7-18.39-5.11c-3.78-3.41-5.67-8.85-5.67-16.34v-6.41h12.54v5.2c0,3.75,0.97,6.47,2.9,8.17
				c1.93,1.7,5.11,2.55,9.54,2.55c1.42,0,2.95-0.08,4.57-0.25c1.63-0.17,3.47-0.39,5.55-0.67l1.11,11.75
				c-2.04,0.37-4.03,0.65-5.97,0.84C375.05,114,372.98,114.09,370.78,114.09z"/>
			<path class="st4" d="M419.96,114.09c-8.51,0-15.09-2.21-19.73-6.62s-6.96-10.75-6.96-19.01c0-8.05,1.97-14.3,5.92-18.76
				c3.95-4.46,9.51-6.69,16.69-6.69c7.03,0,12.46,2.06,16.3,6.18c3.84,4.12,5.76,10.11,5.76,17.97c0,2.23-0.09,4.35-0.28,6.36
				h-36.12v-8.73h24.05c0-3.31-0.84-5.85-2.53-7.62c-1.69-1.76-4.05-2.65-7.08-2.65c-3.28,0-5.83,1.17-7.64,3.51
				c-1.81,2.34-2.72,5.66-2.72,9.96c0,4.64,1.34,8.17,4.02,10.59s6.49,3.62,11.45,3.62c2.23,0,4.43-0.12,6.59-0.35
				c2.17-0.23,4.38-0.55,6.64-0.95l1.21,11.89c-3.16,0.56-6.04,0.91-8.64,1.07C424.27,114.01,421.97,114.09,419.96,114.09z"/>
			<path class="st4" d="M446.84,113.16v-10.77h34.45v10.77H446.84z M448.7,74.71V63.94h18.57l0.93,10.77H448.7z M457.24,113.16
				V63.94h10.68l1.86,14.12v35.1H457.24z M469.78,91.99l-2.88-16.95h4.23c0.5-8.02,4.69-12.03,12.58-12.03
				c4.67,0,8.26,1.72,10.75,5.15c2.49,3.44,3.74,8.39,3.74,14.86h-12.54c0-2.91-0.53-5-1.6-6.27c-1.07-1.27-2.78-1.9-5.13-1.9
				c-3.06,0-5.36,1.49-6.87,4.46C470.54,82.28,469.78,86.51,469.78,91.99z"/>
		</g>
		<g class="st0">
			<path class="st5" d="M186.85,119.92c-2.11,0-3.75-0.69-4.9-2.08c-1.16-1.39-1.73-3.31-1.73-5.77c0-2.47,0.57-4.38,1.7-5.71
				c1.13-1.34,2.74-2.01,4.83-2.01c2.76,0,4.6,1.11,5.52,3.32l-1.39,0.49c-0.69-1.72-2.08-2.58-4.16-2.58
				c-1.64,0-2.89,0.56-3.75,1.67c-0.86,1.11-1.29,2.72-1.29,4.82c0,2.07,0.46,3.69,1.38,4.87c0.92,1.18,2.2,1.77,3.84,1.77
				c1.69,0,3.06-0.55,4.12-1.65v-3.5h-4.04v-1.19h5.39v5.16C190.93,119.12,189.09,119.92,186.85,119.92z"/>
			<path class="st5" d="M213.87,109.03c0,0.9-0.2,1.69-0.61,2.39c-0.41,0.7-1,1.24-1.77,1.63c-0.77,0.39-1.68,0.58-2.72,0.58h-2.58
				v6.08h-1.44v-15.14h3.93c1.64,0,2.91,0.39,3.82,1.18C213.42,106.54,213.87,107.63,213.87,109.03z M212.41,109.05
				c0-1.05-0.33-1.86-0.98-2.44c-0.66-0.58-1.63-0.88-2.93-0.88h-2.31v6.76h2.41c1.22,0,2.16-0.3,2.82-0.9
				C212.08,110.99,212.41,110.15,212.41,109.05z"/>
			<path class="st5" d="M230.81,119.92c-1.69,0-3.01-0.48-3.96-1.43c-0.95-0.96-1.43-2.31-1.43-4.06v-9.86h1.44v9.72
				c0,1.41,0.34,2.5,1.03,3.27c0.69,0.77,1.67,1.15,2.95,1.15c1.36,0,2.4-0.39,3.13-1.18c0.73-0.79,1.09-1.92,1.09-3.38v-9.58h1.45
				v9.65c0,1.79-0.5,3.19-1.5,4.19C234,119.42,232.6,119.92,230.81,119.92z"/>
			<path class="st5" d="M248.22,108.6c2.33-1.66,4.08-4.03,5.24-7.11l1.51,0.67c0.15,0.07,0.23,0.14,0.23,0.19s-0.08,0.12-0.25,0.19
				c-0.27,0.15-0.46,0.31-0.59,0.48c-0.32,0.56-0.61,1.03-0.86,1.42h6.55c-0.83-0.69-1.82-1.38-2.96-2.05l0.82-0.99
				c1.15,0.67,2.26,1.39,3.32,2.14l-0.62,0.9h4.3c0.41,0.01,0.91-0.03,1.51-0.14v1.28c-0.64-0.1-1.15-0.14-1.51-0.13h-5.5v1.6h4.18
				c0.39,0.01,0.93-0.03,1.6-0.13v1.28c-0.66-0.11-1.18-0.15-1.56-0.14h-4.22v1.55h4.39c0.31,0.01,0.79-0.03,1.44-0.13v1.27
				c-0.56-0.1-1.05-0.14-1.46-0.13h-4.37v1.47h5.98c0.37,0,0.86-0.04,1.47-0.13v1.28c-0.6-0.11-1.08-0.15-1.45-0.14h-12.21
				c0,0.26,0.05,0.62,0.14,1.06h-1.5c0.11-0.5,0.15-0.9,0.14-1.19v-6.34c-0.68,0.92-1.41,1.83-2.2,2.73
				C249.4,108.91,248.89,108.66,248.22,108.6z M248.84,120.04c2.96-0.6,5.52-2.02,7.7-4.25h-6.06c-0.39-0.01-0.93,0.03-1.6,0.14
				v-1.32c0.59,0.1,1.1,0.14,1.54,0.13H258c0.01-0.42-0.03-0.88-0.14-1.39l1.68,0.21c0.21,0.02,0.31,0.06,0.31,0.12
				c0,0.04-0.09,0.12-0.27,0.24c-0.27,0.12-0.38,0.39-0.35,0.82h7.2c0.38,0,0.91-0.04,1.59-0.13v1.32
				c-0.65-0.11-1.17-0.15-1.55-0.14h-5.92c1.86,1.88,4.37,3.07,7.53,3.57c-0.64,0.37-1.01,0.86-1.08,1.49
				c-3.54-1.27-6.13-2.87-7.77-4.79v3.99c0,0.48,0.05,1.06,0.14,1.75h-1.5c0.11-0.72,0.15-1.3,0.14-1.75v-4.01
				c-1.91,2.13-4.59,3.89-8.06,5.3C249.75,120.79,249.39,120.36,248.84,120.04z M253.19,105.45v1.6h4.97v-1.6H253.19z
				 M253.19,108.06v1.55h4.97v-1.55H253.19z M253.19,112.09h4.97v-1.47h-4.97V112.09z"/>
			<path class="st5" d="M278.52,116.25c1.51-1.14,2.6-2.81,3.25-5.02h-0.26c-0.54,0-1.04,0.05-1.49,0.14v-1.32
				c0.48,0.09,1,0.13,1.56,0.13h0.48c0.15-0.69,0.26-1.53,0.33-2.52h-1.55c-0.54,0-1.14,0.04-1.8,0.13v-1.3
				c0.57,0.07,1.17,0.11,1.8,0.11h1.57c0-0.09,0.01-0.37,0.02-0.84c0.03-0.79,0.04-1.31,0.04-1.58h-0.46
				c-0.69,0-1.28,0.04-1.78,0.13v-1.32c0.53,0.09,1.12,0.14,1.78,0.14h4.51c0.57,0,1.15-0.05,1.74-0.14
				c-0.09,0.43-0.14,0.97-0.14,1.63v1.98h0.25c0.42,0,0.77-0.04,1.05-0.11v1.3c-0.41-0.09-0.76-0.13-1.05-0.13h-0.25v1.98
				c-0.01,0.62,0.03,1.2,0.14,1.74c-0.52-0.09-1.1-0.14-1.74-0.14h-3.48c-0.2,0.69-0.46,1.43-0.78,2.2
				c0.07,0.01,0.39,0.04,0.95,0.09c0.17,0.01,0.3,0.03,0.39,0.04h2.91c1.04-0.06,1.63-0.1,1.76-0.13c-0.03,0.25-0.07,0.77-0.12,1.57
				v4.83c0,0.24,0.02,0.52,0.08,0.84c0.01,0.11,0.03,0.2,0.04,0.27h-1.44c0-0.12,0.02-0.28,0.05-0.46c0.01-0.29,0.03-0.54,0.04-0.75
				h-3.7c0.01,0.52,0.05,1.1,0.11,1.76h-1.43c0-0.07,0.02-0.42,0.06-1.04c0.03-0.44,0.04-0.68,0.04-0.72v-4.32l-0.11-1.16
				c-0.17,0.35-0.49,0.88-0.99,1.6c-0.34,0.5-0.6,0.9-0.77,1.19C279.84,116.68,279.3,116.41,278.52,116.25z M283.21,114.63v4.09
				h3.76v-4.09H283.21z M283.27,110.18h3.67v-2.52h-3.35C283.55,108.58,283.45,109.42,283.27,110.18z M283.67,104.17
				c0,0.25,0,0.58,0,0.99c0,0.56-0.01,1.04-0.02,1.43h3.3v-2.42H283.67z M293.35,110.87v-3.86h-1.68c-0.63,0-1.23,0.04-1.8,0.13
				v-1.36c0.46,0.09,1.06,0.14,1.8,0.14h2.46c1.12-2.03,1.84-3.48,2.18-4.36c1.16,0.53,1.75,0.83,1.78,0.9
				c-0.01,0.06-0.13,0.12-0.33,0.2c-0.42,0.32-0.82,0.79-1.18,1.41c-0.31,0.59-0.69,1.2-1.15,1.85h1.53c0.58,0,1.17-0.05,1.77-0.14
				v1.36c-0.57-0.09-1.16-0.13-1.77-0.13h-2.38v3.86h1.72c0.62,0,1.21-0.05,1.78-0.14v1.36c-0.59-0.09-1.18-0.13-1.78-0.13h-1.72
				v3.63h2.83c0.77,0,1.36-0.04,1.77-0.13v1.36c-0.55-0.09-1.14-0.14-1.77-0.14h-2.83v3.74c0,0.65,0.05,1.23,0.14,1.74h-1.48
				c0.08-0.57,0.12-1.15,0.12-1.74v-3.74h-2.54c-0.62,0-1.22,0.05-1.8,0.14v-1.36c0.5,0.09,1.1,0.13,1.8,0.13h2.54v-3.63h-1.5
				c-0.62,0-1.21,0.04-1.77,0.13v-1.36c0.7,0.09,1.32,0.14,1.85,0.14H293.35z M289.87,102.56c0.26-0.13,0.6-0.4,1.01-0.83
				c1.12,1.25,2.01,2.21,2.69,2.9c-0.31,0.25-0.63,0.55-0.97,0.9C291.87,104.63,290.96,103.64,289.87,102.56z"/>
			<path class="st5" d="M309.84,106.09c1.69-1,2.96-2.5,3.81-4.51l1.51,0.64c0.06,0.03,0.08,0.07,0.06,0.13
				c-0.01,0.04-0.06,0.08-0.13,0.11c-0.24,0.07-0.44,0.23-0.61,0.48c-0.08,0.11-0.19,0.25-0.33,0.44c-0.17,0.22-0.3,0.4-0.4,0.53
				h4.09c0.66,0,1.13-0.04,1.43-0.13v1.36c-0.42-0.09-0.9-0.13-1.43-0.13h-2.09c0.06,0.09,0.31,0.53,0.75,1.32
				c0.16,0.31,0.27,0.49,0.31,0.55l-1.24,0.53c-0.29-0.62-0.76-1.41-1.39-2.4h-1.19c-0.62,0.7-1.25,1.37-1.91,2
				C310.9,106.76,310.48,106.45,309.84,106.09z M311.12,107.81c0.26,0.09,0.68,0.13,1.26,0.13h7.81c-0.57-0.49-1.23-1.05-1.98-1.67
				l0.92-0.92c0.91,0.69,1.69,1.33,2.33,1.91l-0.62,0.68h6.52c0.56,0,1-0.04,1.32-0.13c-0.09,0.26-0.14,0.68-0.14,1.26v1.27
				c0,0.54,0.05,0.94,0.14,1.19h-1.5c0.09-0.32,0.14-0.73,0.14-1.21v-1.27h-14.83v1.49c0,0.41,0.05,0.77,0.14,1.07h-1.5
				c0.09-0.28,0.14-0.64,0.14-1.07v-1.47C311.26,108.63,311.21,108.21,311.12,107.81z M315.65,122.23h-1.49
				c0.09-0.41,0.13-0.98,0.13-1.71v-8.75c0-0.67-0.04-1.21-0.13-1.63c0.37,0.09,0.91,0.13,1.62,0.13h7.88
				c0.67,0,1.26-0.04,1.75-0.13c-0.09,0.45-0.13,0.96-0.13,1.54v1.32c0,0.71,0.04,1.22,0.13,1.55c-0.49-0.09-1.02-0.14-1.58-0.14
				h-8.31v1.74h9.32c0.62,0,1.18-0.04,1.7-0.13c-0.09,0.34-0.13,0.88-0.13,1.64v2.85c0,0.49,0.04,0.94,0.13,1.34h-1.49
				c0.09-0.24,0.13-0.68,0.13-1.32h-9.66C315.52,121.3,315.57,121.87,315.65,122.23z M324.06,113.35v-2.02h-8.54v2.02H324.06z
				 M315.52,117.24v2.22h9.66v-2.22H315.52z M322.83,103.73h4.64c0.59,0,1.06-0.04,1.43-0.13v1.36c-0.47-0.09-0.94-0.14-1.43-0.14
				h-2.48c0.39,0.6,0.75,1.19,1.07,1.76l-1.15,0.73c-0.35-0.7-0.85-1.53-1.49-2.49h-1.43c-0.47,0.53-0.86,0.92-1.15,1.17
				c-0.21-0.28-0.61-0.58-1.18-0.9c1.16-0.69,2.19-1.89,3.08-3.61l1.47,0.67c0.1,0.04,0.14,0.09,0.13,0.13
				c-0.03,0.06-0.12,0.11-0.26,0.15c-0.17,0.04-0.36,0.2-0.58,0.48C323.26,103.24,323.03,103.51,322.83,103.73z"/>
			<path class="st5" d="M340.89,111.56v-1.36c0.66,0.07,1.22,0.11,1.7,0.13h1.2v-5.15h-1.62c-0.44,0.01-1,0.06-1.68,0.13v-1.36
				c0.6,0.08,1.16,0.12,1.68,0.14h4.16c0.5-0.01,1.06-0.06,1.68-0.14v1.36c-0.62-0.07-1.17-0.11-1.68-0.13h-1.3v5.15h0.84
				c0.48-0.01,1.01-0.06,1.6-0.13v1.36c-0.57-0.07-1.1-0.11-1.6-0.13h-0.84v6.05c0.89-0.31,1.77-0.67,2.62-1.07
				c-0.01,0.16-0.02,0.3-0.02,0.43c0,0.33,0.04,0.66,0.11,1c-2.73,0.92-4.96,1.76-6.69,2.5l-0.74-1.49
				c0.98-0.14,2.14-0.46,3.49-0.95v-6.47h-1.2C342.14,111.45,341.58,111.49,340.89,111.56z M346.87,121.07v-1.36
				c0.72,0.07,1.34,0.11,1.87,0.13h4.76v-3.34h-3.19c-0.52,0.01-1.11,0.06-1.78,0.13v-1.36c0.69,0.07,1.28,0.11,1.78,0.13h3.19
				v-2.99h-2.49c-0.57,0.01-1.22,0.06-1.96,0.13c0.07-0.67,0.11-1.27,0.13-1.78v-6.26c-0.02-0.54-0.06-1.19-0.13-1.92
				c0.74,0.08,1.4,0.12,1.96,0.14h6.27c0.57-0.01,1.22-0.06,1.96-0.14c-0.07,0.69-0.12,1.31-0.13,1.85v6.25
				c0.01,0.59,0.06,1.21,0.13,1.87c-0.7-0.07-1.34-0.11-1.91-0.13h-2.56v2.99h3.04c0.6-0.01,1.18-0.06,1.74-0.13v1.36
				c-0.6-0.07-1.18-0.11-1.74-0.13h-3.04v3.34h4.13c0.62-0.01,1.22-0.06,1.8-0.13v1.36c-0.63-0.07-1.23-0.11-1.8-0.13h-10.16
				C348.21,120.96,347.59,121,346.87,121.07z M350.42,103.8v3.25h3.08v-3.25H350.42z M350.42,108.16v3.15h3.08v-3.15H350.42z
				 M354.77,103.8v3.25h3.1v-3.25H354.77z M354.77,108.16v3.15h3.1v-3.15H354.77z"/>
			<path class="st5" d="M372.11,119.62c1.96-1.05,3.61-2.59,4.93-4.64l1.41,0.85c0.2,0.12,0.29,0.22,0.28,0.29
				c-0.01,0.09-0.13,0.15-0.34,0.19c-0.44,0.06-0.78,0.26-1.02,0.58c-1.26,1.47-2.6,2.7-4.02,3.7
				C372.97,120.19,372.56,119.86,372.11,119.62z M372.44,103.76c1.02,0.13,2.29,0.19,3.8,0.17c1.53-0.03,3.14-0.12,4.84-0.28
				c3.74-0.39,6.21-0.89,7.41-1.49l0.86,1.33c0.16,0.25,0.23,0.4,0.22,0.45c-0.01,0.05-0.06,0.07-0.15,0.07
				c-0.08,0-0.16-0.01-0.24-0.02c-0.17-0.04-0.38-0.06-0.61-0.06c-0.27,0-0.59,0.03-0.95,0.09c-2.25,0.27-4.23,0.5-5.94,0.7
				l0.38,0.29c0.14,0.1,0.2,0.18,0.2,0.25c0,0.02-0.01,0.05-0.04,0.09c-0.02,0.04-0.17,0.07-0.43,0.08c-0.37,0-0.81,0.21-1.32,0.63
				c-1,0.84-2.06,1.7-3.19,2.58c1.79-0.04,3.65-0.12,5.59-0.23c1.12-0.76,2.2-1.66,3.24-2.71l1.22,1.01c0.06,0.09,0.1,0.17,0.1,0.25
				c0,0.12-0.09,0.23-0.27,0.31c-0.43,0.1-0.84,0.28-1.24,0.53c-2.3,1.78-5.08,3.49-8.34,5.15c2.83-0.1,5.79-0.23,8.88-0.38
				c-0.6-0.69-1.2-1.32-1.78-1.89l1.21-0.77c1.23,1.37,2.41,2.71,3.52,4.03l-1.13,0.88c-0.25-0.39-0.57-0.81-0.97-1.26
				c-1.96,0.08-3.61,0.16-4.95,0.25v5.77c0.01,0.77-0.21,1.3-0.68,1.58c-0.46,0.29-1.36,0.48-2.71,0.55
				c-0.17-0.57-0.38-1.13-0.63-1.67c0.5,0.09,0.95,0.13,1.33,0.13c0.99,0,1.46-0.31,1.42-0.92v-5.37c-4.05,0.14-6.47,0.36-7.24,0.67
				l-0.69-1.5c2.01,0,4.77-1.17,8.27-3.51c-3.43,0.13-5.69,0.34-6.79,0.63l-0.56-1.43c0.69-0.18,1.22-0.38,1.59-0.59
				c1.22-0.74,2.57-1.81,4.05-3.21c-1.82,0.11-4.05,0.24-6.69,0.39C372.93,104.75,372.72,104.24,372.44,103.76z M383.9,115.61
				l1.07-0.97c1.91,1.48,3.71,2.98,5.41,4.49l-1.19,1.01C387.69,118.5,385.92,116.99,383.9,115.61z"/>
			<path class="st5" d="M403.87,108.79c0.87-0.01,1.83-0.06,2.88-0.13c0.49-0.98,0.88-1.97,1.19-2.98l1.56,0.9
				c0.15,0.09,0.22,0.18,0.2,0.25c0,0.07-0.08,0.14-0.25,0.19c-0.29,0.09-0.57,0.38-0.84,0.88c-1.2,2.23-2.45,4.38-3.74,6.47
				c1.78-0.21,3.38-0.52,4.82-0.92c-0.24,0.5-0.36,0.96-0.38,1.36c-2.73,0.44-4.75,0.83-6.07,1.15l-0.64-1.59
				c0.74-0.17,1.3-0.58,1.68-1.22c0.73-1.2,1.38-2.34,1.96-3.42c-1.7,0.1-2.89,0.24-3.59,0.42l-0.63-1.36
				c0.52-0.22,0.92-0.63,1.21-1.24c1.15-2.18,1.91-3.99,2.27-5.42l1.62,0.78c0.15,0.07,0.23,0.14,0.23,0.2
				c-0.01,0.07-0.1,0.14-0.25,0.19c-0.28,0.1-0.55,0.41-0.82,0.92C405.48,105.84,404.67,107.35,403.87,108.79z M402.18,119.29
				c2.43-0.34,5-0.96,7.68-1.87c-0.14,0.41-0.23,0.83-0.26,1.26c-3.07,0.9-5.32,1.6-6.76,2.11L402.18,119.29z M407.86,121.11
				c2.3-0.62,3.71-1.54,4.22-2.77c0.37-0.75,0.56-1.92,0.56-3.51c0-0.49-0.02-1.02-0.05-1.59l1.61,0.3
				c0.16,0.04,0.24,0.09,0.26,0.16c0.03,0.06-0.02,0.15-0.15,0.28c-0.25,0.25-0.38,0.67-0.4,1.26c0.09,3.52-1.48,5.89-4.68,7.09
				C408.81,121.76,408.35,121.35,407.86,121.11z M421.63,105.69v1.36c-0.69-0.07-1.27-0.11-1.76-0.13h-5.21l0.76,0.35
				c0.15,0.07,0.23,0.14,0.23,0.19c-0.01,0.07-0.1,0.14-0.25,0.2c-0.29,0.1-0.61,0.42-0.95,0.97c-0.66,0.98-1.44,2.02-2.33,3.13
				c2.36-0.11,4.55-0.29,6.55-0.54c-0.49-0.63-1.1-1.32-1.83-2.06l1.04-0.88c1.35,1.58,2.56,3.09,3.63,4.51l-1.13,0.92
				c-0.22-0.42-0.54-0.9-0.95-1.45c-5.69,0.48-8.7,0.79-9.02,0.95l-0.53-1.43c0.67-0.22,1.21-0.58,1.61-1.06
				c1.02-1.33,1.81-2.6,2.35-3.8h-2.12c-0.52,0.01-1.14,0.06-1.85,0.13v-1.36c0.72,0.08,1.33,0.12,1.83,0.14h8.14
				C420.44,105.81,421.03,105.77,421.63,105.69z M413.24,102.43l0.98-0.82c1.11,1.09,2.12,2.13,3.03,3.13l-0.95,0.86
				C415.47,104.58,414.44,103.52,413.24,102.43z M420.75,117.86c0.24,0.29,0.75,0.55,1.54,0.77c-0.2,1.33-0.5,2.17-0.9,2.5
				c-0.34,0.38-1.1,0.55-2.29,0.53c-1.12,0-1.87-0.12-2.25-0.35c-0.38-0.21-0.56-0.68-0.55-1.41v-5.02
				c-0.01-0.54-0.06-1.17-0.13-1.91l1.68,0.23c0.08,0.02,0.12,0.06,0.12,0.13c0,0.08-0.06,0.18-0.19,0.31
				c-0.17,0.07-0.25,0.57-0.24,1.49v4.33c-0.03,0.57,0.48,0.86,1.54,0.86c0.85,0.03,1.37-0.11,1.55-0.42c0.13-0.17,0.19-0.5,0.19-1
				C420.81,118.62,420.79,118.27,420.75,117.86z"/>
		</g>
		<g class="st0">
			<path class="st1" d="M165.78,66.49c0-2.83,0.47-5.57,1.4-8.21c0.94-2.64,2.28-4.98,4.03-7.02c1.75-2.04,3.85-3.67,6.3-4.9
				c2.45-1.22,5.18-1.84,8.21-1.84h21.6v9.22h-21.38c-1.1,0-2.24,0.36-3.42,1.08c-1.18,0.72-2.26,1.67-3.24,2.84
				c-0.98,1.18-1.8,2.53-2.45,4.07c-0.65,1.54-0.97,3.1-0.97,4.68s0.31,3.14,0.94,4.68c0.62,1.54,1.44,2.9,2.45,4.1
				c1.01,1.2,2.14,2.16,3.38,2.88c1.25,0.72,2.5,1.08,3.74,1.08h20.95v9.22h-21.82c-3.17,0-5.98-0.66-8.42-1.98
				c-2.45-1.32-4.51-3.04-6.19-5.15c-1.68-2.11-2.95-4.46-3.82-7.06C166.21,71.6,165.78,69.03,165.78,66.49z"/>
			<path class="st1" d="M213.88,44.53h25.99c2.3,0,4.3,0.41,5.98,1.22c1.68,0.82,3.07,1.88,4.18,3.2c1.1,1.32,1.92,2.84,2.45,4.57
				c0.53,1.73,0.79,3.5,0.79,5.33c0,3.31-0.59,6.14-1.76,8.5c-1.18,2.35-3.13,4.08-5.87,5.18l12.53,15.84h-13.68L225.04,64.9h13.9
				c0.58,0,1.12-0.19,1.62-0.58c0.5-0.38,0.94-0.86,1.3-1.44c0.36-0.58,0.65-1.2,0.86-1.87c0.22-0.67,0.32-1.27,0.32-1.8
				c0-0.43-0.07-0.91-0.22-1.44c-0.14-0.53-0.36-1.04-0.65-1.55c-0.29-0.5-0.62-0.92-1.01-1.26c-0.38-0.33-0.82-0.5-1.3-0.5h-25.99
				V44.53z"/>
			<path class="st1" d="M278.32,44.53h10.8l21.6,43.85h-12.24l-5.62-11.66h-11.88l-4.18-5.47l-7.78,17.14h-12.24L278.32,44.53z
				 M278.39,67.35h10.66l-5.4-11.16L278.39,67.35z"/>
			<path class="st1" d="M342.04,44.53v9.22h-13.18v34.63H317.7V53.74h-13.1v-9.22H342.04z"/>
			<path class="st1" d="M384.01,44.53v9.22h-35.42v-9.22H384.01z M348.59,60.66h35.42v9.29h-35.42V60.66z M348.59,79.16h35.42v9.22
				h-35.42V79.16z"/>
			<path class="st1" d="M390.49,44.53h25.99c2.3,0,4.29,0.41,5.98,1.22c1.68,0.82,3.07,1.88,4.18,3.2c1.1,1.32,1.92,2.84,2.45,4.57
				s0.79,3.5,0.79,5.33c0,3.31-0.59,6.14-1.76,8.5c-1.18,2.35-3.13,4.08-5.87,5.18l12.53,15.84h-13.68L401.65,64.9h13.9
				c0.58,0,1.12-0.19,1.62-0.58c0.5-0.38,0.94-0.86,1.3-1.44c0.36-0.58,0.65-1.2,0.86-1.87c0.22-0.67,0.32-1.27,0.32-1.8
				c0-0.43-0.07-0.91-0.22-1.44c-0.14-0.53-0.36-1.04-0.65-1.55s-0.62-0.92-1.01-1.26c-0.38-0.33-0.82-0.5-1.3-0.5h-25.99V44.53z"/>
		</g>
	</g>
</g>
<g id="图层_3" class="st0">
	<g class="st1">
		<path class="st6" d="M74.07,15.79c5,0.16,9.62,0.21,14.15,1.21c0.99,0.22,2.34,0.26,2.38,1.61c0.03,1.16-1.29,1.14-2.09,1.43
			c-1.6,0.59-3.25,1.1-4.91,1.47c-7.2,1.63-12.13,6.15-15.51,12.42c-1.4,2.6-3.16,4.2-5.95,5.27
			c-14.09,5.43-24.34,14.91-26.31,30.31c-2.78,21.74,7.04,42.08,30.61,45.93c18.94,3.09,34.26-3.9,46.68-18.11
			c8.98-10.28,14.99-22.17,19.34-35.01c0.34-1.02,0.31-2.76,1.78-2.67c1.38,0.08,1.33,1.73,1.66,2.83
			c8.64,28.8-8.19,59.24-33.87,71.08c-10.81,4.98-22.16,7.33-33.82,5.77c-22.35-2.99-39.07-14.5-49.36-34.93
			c-4.26-8.45-6.33-17.6-6.12-26.71c0.35-15.02,4.82-29,15.24-40.52C40.43,23.41,55.63,15.65,74.07,15.79z"/>
		<path class="st7" d="M130.68,51.31c0.18,3.38-0.98,7.3-2,9.95c-6.31,16.5-15.84,30.87-29.41,42.25c0,0-11.86,10.35-20.27,9.27
			c-1.93-0.25-3.32-1.22-3.32-1.22s-1.44-1.01-2.39-2.89c-1.37-2.72-2.01-10.44,2.1-17.72c2.24-3.95,6.3-7.15,13.24-10.22
			c2.79-1.23,18.05-8.63,23.75-12.53c0,0,7.06-4.82,15.56-13.15c0.14-0.14,0.25-0.25,0.28-0.28
			C129.49,53.46,130.24,52.2,130.68,51.31z"/>
		<path class="st7" d="M132.44,53.26"/>
		<path class="st7" d="M112.17,8.15c-0.68,2.5-1.85,5.81-3.92,9.38c-1,1.72-2.85,4.63-5.77,7.64c-7.08,7.32-15.08,9.76-19.86,11.15
			c-3.27,0.95-9.36,2.73-10.57,0.78c-0.9-1.45,1.32-4.34,2.02-5.25c4.53-5.89,11.48-7.77,13.15-8.25
			C93.21,21.88,101.68,17.96,112.17,8.15z"/>
	</g>
</g>
<g id="图层_5">
	<g>
		<g>
			<path class="st6" d="M123.03,86.45c-0.78,2.09-1.57,4.17-2.35,6.26c2.12,6.31,3.42,13.48-0.12,17.32
				c-7.58,8.23-35.29-1.01-52.71-17.6C51.19,76.56,39.16,49.4,48.11,39.29c2.23-2.52,6.98-5.35,18.05-3.97
				c1.65-0.61,3.3-1.22,4.96-1.83c-4.45-1.3-37.24-10.51-49.57,4.17c-13.72,16.35,5.74,53.02,26.87,72.52
				c26.4,24.37,70.26,35.66,82.17,20.87C132.87,128.25,139.42,117.74,123.03,86.45z"/>
		</g>
	</g>
	<path class="st7" d="M111.04,28C98.43,39.03,85.82,50.06,73.2,61.09c-4.76,3.52-11.5,2.45-15.05-2.36
		c-1.78-2.41-2.42-5.3-2.03-8.03c0.39-2.72,1.83-5.29,4.21-7.05c14.5-8.34,29-16.68,43.5-25.03c2.6-2.23,6.38-1.96,8.4,0.19
		C114.52,21.24,114.23,25.72,111.04,28z"/>
	<path class="st7" d="M135.75,32.49c-16.2,18.57-32.4,37.15-48.6,55.72c-4.29,4.29-11.24,4.29-15.53,0
		c-4.29-4.29-4.28-11.24,0.01-15.52c18.57-15.25,37.14-30.49,55.72-45.74c0.22-0.16,4.26-2.93,6.86-1.32
		c1.15,0.71,1.68,2.05,1.81,2.38C136.81,30.16,135.94,32.09,135.75,32.49z"/>
	<path class="st7" d="M133.39,61.09c-6.37,11.34-12.73,22.67-19.1,34.01c-0.1,0.19-0.22,0.37-0.35,0.54
		c-2.73,3.51-7.77,4.26-11.41,1.64c-3.64-2.62-4.54-7.63-2.08-11.33c0.12-0.18,0.25-0.34,0.4-0.5c8.72-9.65,17.44-19.3,26.16-28.94
		c1.49-1.41,3.69-1.62,5.26-0.6c0.28,0.18,0.54,0.4,0.76,0.65C134.14,57.78,134.2,59.64,133.39,61.09z"/>
</g>
<g id="图层_6" class="st0">
	<g class="st1">
		<path class="st8" d="M12.23,44.89c0.07-0.1,0.15-0.2,0.22-0.3c0.11-0.11,0.23-0.22,0.33-0.34c8.3-10.17,22.49-11.84,32.91-3.86
			c1.12,0.86,2.22,1.75,3.13,3.01c-5.93-0.22-9.91,2.88-13.26,7.11c-1.57,1.99-2.8,4.19-3.72,6.54c-1.71,4.39-3.27,8.84-3.43,13.6
			c-0.27,8.11,0.07,16.23,0,24.34c-0.07,7.56-0.03,15.11-0.01,22.67c0.01,3.88,2.33,6.17,6.2,6.19c1.2,0.01,2.4,0.02,3.6,0
			c3.55-0.06,5.79-2.36,5.79-5.92c0-13.31-0.03-26.63,0.02-39.94c0.02-5.11,0.31-10.22,1.4-15.24c1.05-4.86,2.43-9.6,5.16-13.83
			c1.87-2.89,4.2-4.84,7.96-3.84c0.59,0.16,0.93,0.01,0.65-0.72c-0.31-0.82-0.53-1.67-0.82-2.5c-1.58-4.36-3.68-8.43-7.12-11.64
			c-2.19-2.04-4.68-3.64-7.81-3.27c-3.11,0.37-6.14,1.25-9.45,2.29c10.94,0.12,16.88,6.56,21.33,15.41c-0.73-0.1-1.23-0.2-1.74-0.24
			c-1.18-0.08-2.05-0.54-2.69-1.62c-0.89-1.47-2.09-2.73-3.36-3.89c-5.69-5.21-12.28-7.78-20-6.21c-6.91,1.4-11.54,5.99-15.28,11.66
			c-0.06,0.1-0.12,0.2-0.18,0.3c-0.44,0.46-0.7,1.02-1.06,1.85C11.66,45.92,11.95,45.41,12.23,44.89z M91.99,42.56
			c0.34-0.12,0.69-0.21,1.01-0.35c3.66-1.59,7.44-1.66,11.26-0.74c3.81,0.92,7.11,2.86,9.9,5.58c5.7,5.57,8.91,12.28,8.94,20.35
			c0.02,6.63,0,13.26,0.01,19.88c0,2.11,1.12,3.18,3.18,3.16c1.95-0.02,3.05-1.15,3.05-3.2c0.01-7.83,0.11-15.66-0.02-23.49
			c-0.19-10.7-5.03-18.73-14.7-23.36c-7.82-3.74-15.57-3.09-22.78,1.98c-0.1,0.1-0.2,0.19-0.3,0.29
			C91.72,42.83,91.86,42.7,91.99,42.56z M92.09,26.68c-0.03-0.21-0.2-0.21-0.35-0.24c-3.15-0.56-6.33-0.85-9.5-1.21
			c-1.44-0.16-2.47,0.42-3.3,1.52c-0.92,1.22-1.57,2.59-2.11,4.02c-1.66,4.4-2.56,8.97-3.11,13.62c-0.11,0.9-0.4,1.29-1.32,1.22
			c-0.75-0.06-1.53-0.1-2.27,0.02c-1.06,0.16-1.23-0.25-1.24-1.22c-0.03-6.23-0.14-12.46-0.18-18.7c0-0.81-0.25-1.02-1.02-0.99
			c-1.72,0.07-3.44,0.02-5.15,0.09c-2.04,0.09-4.08,0.25-6.4,0.39c2.19,1.31,3.21,3.16,4.08,5.09c1.56,3.44,2.38,7.1,3.18,10.77
			c0.33,1.51,0.56,3.05,0.94,4.55c0.35,1.36-0.87,3.01-1.11,4.62c-0.03,0.2-0.06,0.39-0.1,0.59c-1.4,8.25-1.74,16.59-1.91,24.94
			c-0.14,7.07,0.69,14.12,0.5,21.2c-0.09,3.32-0.02,6.64-0.01,9.95c0.01,3.05,1.95,5.67,4.96,6.19c2.55,0.44,5.2,0.44,7.75,0
			c3.13-0.54,5.03-3.17,5.04-6.52c0.02-8.08-0.11-16.15,0.04-24.22c0.17-9.08-0.02-18.14-1.5-27.11c-0.56-3.39-0.98-6.86-3.15-9.79
			c0.71-0.03,1.39-0.1,2.06-0.08c0.85,0.02,1.27-0.3,1.48-1.17c0.48-2.02,1.16-3.99,2.07-5.86C82.98,33.11,85.7,28.06,92.09,26.68z
			 M45.8,42.17c-0.43-0.62-1.04-0.9-1.63-1.21c-5.85-3.04-11.71-3.43-17.77-0.42C15.23,46.08,9.18,54.91,9.1,67.42
			c-0.03,4.42,0.13,8.86,0.16,13.29c0.04,5.75,0.01,11.51,0.01,17.26c0,1.22,0.18,2.41,1.37,2.98c1.57,0.76,3.29,0.75,4.87,0.06
			c1.49-0.65,1.5-2.11,1.5-3.5c-0.01-10.31-0.01-20.62,0-30.93c0-0.72,0.04-1.44,0.16-2.14c1.02-6.19,3.53-11.68,7.9-16.22
			c4.43-4.6,9.71-7.34,16.31-6.92C42.88,41.4,44.32,41.85,45.8,42.17z M11.09,46.47c-0.36,0.31-0.54,0.5-0.46,0.85
			C10.9,47.15,10.97,46.91,11.09,46.47z M125.81,44.36c-0.03-0.06-0.05-0.14-0.09-0.18c-0.02-0.02-0.1,0.03-0.16,0.05
			c0.02,0.06,0.04,0.14,0.08,0.18C125.66,44.44,125.75,44.38,125.81,44.36z"/>
		<path class="st9" d="M103.7,129.35c-0.1-0.35-0.45-0.3-0.69-0.39c-3.44-1.25-5.17-3.69-5.17-7.37c0-15.58-0.12-31.17,0.06-46.75
			c0.07-5.75-1.25-11.05-3.49-16.23c-1.86-4.31-4.31-8.27-7.07-12.06c-0.98-1.35-2.23-1.84-3.78-1.85c-0.36,0-0.71,0-1.17,0
			c0.29-1.2,0.87-2.18,1.41-3.17c2.08-3.8,4.73-7.11,8.38-9.53c4.55-3.02,9.37-3.87,14.56-1.8c1.06,0.42,2.16,0.77,3.47,1.5
			c-11.45-1.66-19.11,3.49-25.03,12.58c0.84-0.02,0.92-0.54,1.13-0.86c3.45-5.14,7.94-8.96,13.96-10.7c7.66-2.22,14.22,0.04,20,5.17
			c1.49,1.32,2.94,2.7,4.07,4.37c-0.07,0.08-0.15,0.16-0.22,0.24c-2.83-2.84-6-5.15-9.9-6.28c-9.48-2.74-17.62-0.32-24.57,6.52
			c-0.6,0.59-0.61,1.51-1.43,2.17c0.97,0.04,1.24-0.65,1.69-1.01c0.58-0.47,1.07-0.8,1.94-0.82c2.75-0.08,4.97,0.83,7.1,2.56
			c5.76,4.71,10.02,10.47,12.63,17.44c0.69,1.84,1,3.77,1,5.75c0,17.62,0,35.24,0,52.86c0,3.76-2.18,6.53-5.86,7.43
			c-0.16,0.04-0.31,0.06-0.38,0.23C105.46,129.35,104.58,129.35,103.7,129.35z"/>
		<path class="st9" d="M12.23,44.37c3.73-5.67,8.37-10.26,15.28-11.66c7.73-1.57,14.31,1,20,6.21c1.27,1.16,2.48,2.41,3.36,3.89
			c0.65,1.08,1.51,1.54,2.69,1.62c0.51,0.04,1.01,0.14,1.74,0.24c-4.45-8.85-10.39-15.29-21.33-15.41c3.31-1.04,6.34-1.92,9.45-2.29
			c3.13-0.37,5.63,1.23,7.81,3.27c3.44,3.21,5.54,7.28,7.12,11.64c0.3,0.82,0.51,1.68,0.82,2.5c0.28,0.74-0.05,0.88-0.65,0.72
			c-3.76-1-6.09,0.95-7.96,3.84c-2.73,4.23-4.11,8.97-5.16,13.83c-1.09,5.02-1.38,10.13-1.4,15.24C43.97,91.31,44,104.63,44,117.94
			c0,3.56-2.24,5.86-5.79,5.92c-1.2,0.02-2.4,0.01-3.6,0c-3.87-0.02-6.19-2.31-6.2-6.19c-0.02-7.56-0.06-15.11,0.01-22.67
			c0.07-8.11-0.27-16.23,0-24.34c0.16-4.77,1.72-9.22,3.43-13.6c0.92-2.35,2.15-4.55,3.72-6.54c3.35-4.23,7.33-7.34,13.26-7.11
			c-0.91-1.27-2.02-2.16-3.13-3.01c-10.42-7.98-24.61-6.31-32.91,3.86c-0.1,0.12-0.22,0.23-0.33,0.34
			C12.38,44.52,12.3,44.44,12.23,44.37z"/>
		<path class="st9" d="M92.09,26.68c-6.39,1.38-9.11,6.43-11.64,11.65c-0.9,1.87-1.59,3.84-2.07,5.86c-0.21,0.87-0.63,1.2-1.48,1.17
			c-0.67-0.02-1.34,0.05-2.06,0.08c2.18,2.93,2.6,6.4,3.15,9.79c1.47,8.98,1.67,18.03,1.5,27.11c-0.15,8.07-0.02,16.15-0.04,24.22
			c-0.01,3.35-1.91,5.99-5.04,6.52c-2.55,0.44-5.2,0.44-7.75,0c-3-0.52-4.95-3.14-4.96-6.19c-0.01-3.32-0.08-6.64,0.01-9.95
			c0.2-7.08-0.64-14.13-0.5-21.2c0.17-8.35,0.5-16.68,1.91-24.94c0.03-0.2,0.07-0.39,0.1-0.59c0.24-1.6,1.46-3.26,1.11-4.62
			c-0.38-1.5-0.61-3.04-0.94-4.55c-0.8-3.67-1.62-7.33-3.18-10.77c-0.88-1.93-1.9-3.78-4.08-5.09c2.31-0.15,4.35-0.31,6.4-0.39
			c1.72-0.07,3.44-0.02,5.15-0.09c0.77-0.03,1.01,0.18,1.02,0.99c0.04,6.23,0.15,12.46,0.18,18.7c0,0.97,0.18,1.38,1.24,1.22
			c0.74-0.11,1.52-0.07,2.27-0.02c0.92,0.07,1.21-0.31,1.32-1.22c0.56-4.65,1.46-9.22,3.11-13.62c0.54-1.42,1.18-2.79,2.11-4.02
			c0.83-1.1,1.86-1.68,3.3-1.52c3.17,0.36,6.35,0.65,9.5,1.21C91.89,26.47,92.06,26.47,92.09,26.68z"/>
		<path class="st10" d="M45.8,42.17c-1.48-0.32-2.92-0.77-4.43-0.86c-6.59-0.42-11.88,2.32-16.31,6.92
			c-4.36,4.53-6.88,10.03-7.9,16.22C17.05,65.14,17,65.87,17,66.58c-0.01,10.31-0.01,20.62,0,30.93c0,1.39-0.02,2.85-1.5,3.5
			c-1.58,0.7-3.3,0.71-4.87-0.06c-1.18-0.57-1.37-1.77-1.37-2.98c0.01-5.75,0.03-11.51-0.01-17.26c-0.03-4.43-0.18-8.87-0.16-13.29
			c0.08-12.52,6.13-21.35,17.29-26.88c6.06-3.01,11.92-2.61,17.77,0.42C44.75,41.27,45.37,41.55,45.8,42.17z"/>
		<path class="st9" d="M91.83,42.37c7.21-5.07,14.96-5.72,22.78-1.98c9.67,4.63,14.52,12.66,14.7,23.36
			c0.14,7.83,0.03,15.66,0.02,23.49c0,2.05-1.1,3.18-3.05,3.2c-2.06,0.02-3.17-1.06-3.18-3.16c-0.01-6.63,0.01-13.26-0.01-19.88
			c-0.03-8.07-3.24-14.78-8.94-20.35c-2.79-2.73-6.08-4.66-9.9-5.58c-3.81-0.92-7.59-0.85-11.26,0.74
			c-0.33,0.14-0.67,0.23-1.01,0.35C91.93,42.5,91.88,42.43,91.83,42.37z"/>
		<path class="st10" d="M124.12,42.49c0.07-0.08,0.15-0.16,0.22-0.24c0.52,0.43,0.82,1.02,0.99,1.73
			C124.93,43.49,124.52,42.99,124.12,42.49z"/>
		<path class="st10" d="M12.23,44.89c-0.28,0.52-0.56,1.02-1.24,1.63c0.36-0.84,0.62-1.39,1.06-1.85
			C12.11,44.74,12.17,44.82,12.23,44.89z"/>
		<path class="st10" d="M11.09,46.47c-0.12,0.44-0.19,0.69-0.46,0.85C10.55,46.97,10.73,46.77,11.09,46.47z"/>
		<path class="st10" d="M125.81,44.36c-0.06,0.02-0.15,0.08-0.17,0.06c-0.04-0.04-0.06-0.12-0.08-0.18
			c0.05-0.02,0.13-0.07,0.16-0.05C125.76,44.22,125.78,44.3,125.81,44.36z"/>
		<path class="st9" d="M91.99,42.56c-0.13,0.15-0.26,0.27-0.46,0.11c0.1-0.1,0.2-0.19,0.3-0.29C91.88,42.43,91.93,42.5,91.99,42.56z
			"/>
		<path class="st9" d="M12.23,44.89c-0.06-0.08-0.12-0.15-0.17-0.23c0.06-0.1,0.12-0.2,0.18-0.3c0.07,0.07,0.15,0.15,0.22,0.23
			C12.37,44.69,12.3,44.79,12.23,44.89z"/>
	</g>
</g>
<g id="图层_7" class="st0">
	<g class="st1">
		<path class="st11" d="M133.89,40.74c0.08,1.74,0.14,4.18,0.02,7.09c-0.12,3.02-0.19,12.8-4.85,24.67
			c-4.11,10.45-6.4,16.28-11.44,22.7c-3.16,4.03-16.69,21.26-39.29,22.34c-3.97,0.19-26.17,0.74-38.23-16.04
			c-14.19-19.76-4.46-49.83,8.56-57.27c2.82-1.61,7.12-2.91,13.62-7.58c5.99-4.3,7.97-7.24,11.95-10.58
			c4.29-3.6,11.27-7.98,22.65-10.26l-13.1-7.56c-5.18-2.99-11.57-2.99-16.75,0L19.97,35.42c-5.18,2.99-8.38,8.52-8.38,14.51v54.34
			c0,5.99,3.19,11.52,8.38,14.51l47.06,27.17c5.18,2.99,11.57,2.99,16.75,0l47.06-27.17c5.18-2.99,8.38-8.52,8.38-14.51V49.93
			c0.11-0.53,0.66-3.38-1.14-6.07C136.63,41.7,134.55,40.95,133.89,40.74z"/>
		<g>
			<path class="st12" d="M74.03,15.91c5,0.16,9.62,0.21,14.15,1.21c0.99,0.22,2.34,0.26,2.38,1.61c0.03,1.16-1.29,1.14-2.09,1.43
				c-1.6,0.59-3.25,1.1-4.91,1.47c-7.2,1.63-12.13,6.15-15.51,12.42c-1.4,2.6-3.16,4.2-5.95,5.27C48,44.76,37.75,54.25,35.78,69.65
				c-2.78,21.74,7.04,42.08,30.61,45.93c18.94,3.09,34.26-3.9,46.68-18.11c8.98-10.28,14.99-22.17,19.34-35.01
				c0.34-1.02,0.31-2.76,1.78-2.67c1.38,0.08,1.33,1.73,1.66,2.83c8.64,28.8-8.19,59.24-33.87,71.08
				c-10.81,4.98-22.16,7.33-33.82,5.77c-22.35-2.99-39.07-14.5-49.36-34.93c-4.26-8.45-6.33-17.6-6.12-26.71
				c0.35-15.02,4.82-29,15.24-40.52C40.39,23.53,55.59,15.77,74.03,15.91z"/>
			<path class="st13" d="M140.69,0.35c0.24,0.21-2.39,3.32-2.39,3.32c-6.33,12.38-7.04,14.74-7.04,14.74
				c-3.68,12.38-4.23,14.55-5.81,19.67c-2.8,9.08-4.64,13.86-8.53,18.44c-2.34,2.75-4.6,4.44-5.17,4.86c-1.38,1.01-3,2-10.29,4.9
				c-5.66,2.25-10.43,3.93-13.58,5.01c-4.41,1.51-4,1.25-5.02,1.7c-5.47,2.37-9.72,5.57-12.88,9.52
				c-1.32,1.65-8.38,10.57-7.11,19.32c0.16,1.13,0.6,3.14-0.54,4.47c-1.79,2.08-6.2,1-7.13,0.77c-8.53-2.1-19.15-20.04-15.36-37.48
				c3-13.82,15.31-25.98,27.58-27.66c6.84-0.93,11.49,1.71,22.6-0.98c6.49-1.57,9.85-3.67,12.09-5.56c3.8-3.21,3.64-5.83,7.5-11.05
				c4.46-6.04,12.75-16.79,24.45-21.88C135.26,1.93,140.6,0.26,140.69,0.35z"/>
			<path class="st6" d="M134.19,6.01c0.22,0.2-2.19,3.06-2.19,3.06c0,0-2.24,2.37-6.17,8.97c-4.19,7.03-4.78,14.9-5.62,22.75
				c-0.31,2.89-0.76,5.78-1.43,8.6c-2.01,8.5-7.5,13.85-15.46,16.93c-7.22,2.8-15.05,3.52-22.19,6.63
				C69.49,78.03,63.86,87.2,62.77,99.55c-0.01,0.1,0.03,0.53-0.03,1.09c-0.15,1.36-0.72,2.69-1.28,3.3
				c-1.47,1.62-4.99,0.64-5.73,0.44c-6.13-1.69-17.66-17.52-14.1-34.55c2.74-13.1,13.65-23.47,26.94-25.86
				c4.08-0.73,8.18-0.62,12.28-0.85c10.95-0.61,18.42-6.57,24.82-15c6.15-8.09,12.75-15.93,22.44-20.17
				C129.2,7.47,134.1,5.93,134.19,6.01z"/>
			<path class="st7" d="M124.69,56.98c0.16,2.89-0.88,6.25-1.79,8.52c-5.67,14.14-14.23,26.46-26.41,36.2c0,0-10.65,8.87-18.21,7.94
				c-1.73-0.21-2.98-1.04-2.98-1.04s-1.3-0.86-2.15-2.48c-1.23-2.33-1.81-8.95,1.89-15.19c2.01-3.39,5.65-6.13,11.9-8.76
				c2.51-1.06,16.21-7.4,21.34-10.73c0,0,6.34-4.13,13.98-11.27c0.13-0.12,0.23-0.22,0.25-0.24
				C123.63,58.83,124.3,57.75,124.69,56.98z"/>
			<path class="st7" d="M132.4,53.39"/>
			<path class="st7" d="M110.72,9.36c-0.6,2.1-1.62,4.89-3.44,7.9c-1.61,2.68-3.22,4.43-5.06,6.44c-3.77,4.1-5.65,6.15-8.57,7.85
				c-1.54,0.9-8.5,4.94-14.07,2.3c-0.76-0.36-2.95-1.4-2.99-2.88c-0.07-2.68,7.03-4.54,12.27-6.61
				C94.51,22.14,102.35,17.96,110.72,9.36z"/>
		</g>
	</g>
</g>
<g id="图层_8" class="st0">
	<path class="st5" d="M140.79,103.73V49.39c0-5.99-3.19-11.52-8.38-14.51L85.35,7.71c-5.18-2.99-11.57-2.99-16.75,0L21.53,34.88
		c-5.18,2.99-8.38,8.52-8.38,14.51v54.34c0,5.99,3.19,11.52,8.38,14.51l47.06,27.17c5.18,2.99,11.57,2.99,16.75,0l47.06-27.17
		C137.59,115.24,140.79,109.71,140.79,103.73z"/>
	<path class="st14" d="M82.16,77.59l-5.04,9.51l9.81,2.64l-16.35,18.52l3.27-15.87H60.77l11.59-15
		C59.43,83.19,48.6,88.13,40.5,91.85c-19.19,8.81-26.27,12.24-26.42,17.36c-0.11,3.85,4.56,7.19,13.92,13.71
		c9.04,6.3,12.65,7.22,28.57,15.71c14.22,7.59,16.03,9.36,21.07,9.29c3.53-0.05,5.69-0.96,19.64-8.57
		c13.14-7.17,19.82-10.82,25-14.29c12.98-8.67,19.47-13.01,19.29-17.14c-0.18-4.1-4.87-7.39-31.79-18.93
		C98.35,84.08,88.8,80.22,82.16,77.59z M63.79,52.11c0.97,6.56,3.7,11.9,7.3,14.7c1.95-7.01,3.89-14.02,5.84-21.03
		c1.55,4.17,3.1,8.33,4.64,12.5c-0.07,3.05-0.14,6.1-0.22,9.15c1.21-0.9,2.59-2.14,3.89-3.81c3.42-4.42,4.11-9.17,4.28-11.51
		c6.87-1.56,11.45-4.33,11.45-7.49c0-3.32-5.04-6.21-12.48-7.72c-2.19-7.22-6.66-12.18-11.84-12.18c-5.18,0-9.65,4.96-11.84,12.18
		c-7.4-0.68-12.55,4.13-12.48,7.72C52.4,47.99,57.1,52.21,63.79,52.11z"/>
</g>
</svg>
