<?xml version="1.0" encoding="utf-8"?>
<!-- Generator: Adobe Illustrator 28.0.0, SVG Export Plug-In . SVG Version: 6.00 Build 0)  -->
<svg version="1.1" id="图层_1" xmlns="http://www.w3.org/2000/svg" xmlns:xlink="http://www.w3.org/1999/xlink" x="0px" y="0px"
	 viewBox="0 0 395 114" style="enable-background:new 0 0 395 114;" xml:space="preserve">
<style type="text/css">
	.st0{fill:#594640;}
	.st1{fill:#89664C;}
	.st2{fill:#ED4C5C;}
</style>
<g>
	<path d="M97.48,56.57c0-2.83,0.47-5.57,1.4-8.21c0.94-2.64,2.28-4.98,4.03-7.02c1.75-2.04,3.85-3.67,6.3-4.9
		c2.45-1.22,5.18-1.84,8.21-1.84h21.6v9.22h-21.38c-1.1,0-2.24,0.36-3.42,1.08c-1.18,0.72-2.26,1.67-3.24,2.84
		c-0.98,1.18-1.8,2.53-2.45,4.07c-0.65,1.54-0.97,3.1-0.97,4.68s0.31,3.14,0.94,4.68c0.62,1.54,1.44,2.9,2.45,4.1
		c1.01,1.2,2.14,2.16,3.38,2.88c1.25,0.72,2.5,1.08,3.74,1.08h20.95v9.22H117.2c-3.17,0-5.98-0.66-8.42-1.98
		c-2.45-1.32-4.51-3.04-6.19-5.15c-1.68-2.11-2.95-4.46-3.82-7.06C97.91,61.69,97.48,59.12,97.48,56.57z"/>
	<path d="M145.57,34.61h25.99c2.3,0,4.3,0.41,5.98,1.22c1.68,0.82,3.07,1.88,4.18,3.2c1.1,1.32,1.92,2.84,2.45,4.57
		c0.53,1.73,0.79,3.5,0.79,5.33c0,3.31-0.59,6.14-1.76,8.5c-1.18,2.35-3.13,4.08-5.87,5.18l12.53,15.84h-13.68l-19.44-23.47h13.9
		c0.58,0,1.12-0.19,1.62-0.58c0.5-0.38,0.94-0.86,1.3-1.44c0.36-0.58,0.65-1.2,0.86-1.87c0.22-0.67,0.32-1.27,0.32-1.8
		c0-0.43-0.07-0.91-0.22-1.44c-0.14-0.53-0.36-1.04-0.65-1.55c-0.29-0.5-0.62-0.92-1.01-1.26c-0.38-0.33-0.82-0.5-1.3-0.5h-25.99
		V34.61z"/>
	<path d="M210.01,34.61h10.8l21.6,43.85h-12.24l-5.62-11.66h-11.88l-4.18-5.47l-7.78,17.14h-12.24L210.01,34.61z M210.08,57.44
		h10.66l-5.4-11.16L210.08,57.44z"/>
	<path d="M273.73,34.61v9.22h-13.18v34.63H249.4V43.83h-13.1v-9.22H273.73z"/>
	<path d="M315.71,34.61v9.22h-35.42v-9.22H315.71z M280.28,50.74h35.42v9.29h-35.42V50.74z M280.28,69.25h35.42v9.22h-35.42V69.25z"
		/>
	<path d="M322.19,34.61h25.99c2.3,0,4.29,0.41,5.98,1.22c1.68,0.82,3.07,1.88,4.18,3.2c1.1,1.32,1.92,2.84,2.45,4.57
		s0.79,3.5,0.79,5.33c0,3.31-0.59,6.14-1.76,8.5c-1.18,2.35-3.13,4.08-5.87,5.18l12.53,15.84h-13.68l-19.44-23.47h13.9
		c0.58,0,1.12-0.19,1.62-0.58c0.5-0.38,0.94-0.86,1.3-1.44c0.36-0.58,0.65-1.2,0.86-1.87c0.22-0.67,0.32-1.27,0.32-1.8
		c0-0.43-0.07-0.91-0.22-1.44c-0.14-0.53-0.36-1.04-0.65-1.55s-0.62-0.92-1.01-1.26c-0.38-0.33-0.82-0.5-1.3-0.5h-25.99V34.61z"/>
</g>
<g>
	<path class="st0" d="M59.87,55.78c-1.96-4.49-2.67-1.54-4.49-2.95c-1.82-1.4-5.19,1.4-7.43,0.56c-2.24-0.84-5.61,1.12-7.57-0.14
		s-3.09,0-3.51,0.7c-0.56,0.98-1.96,4.21-2.1,4.35C23.54,83.83,5.87,98,5.87,98h84.16C90.03,98,71.79,82.57,59.87,55.78"/>
	<g>
		<path class="st1" d="M37.99,59.29c-1.12,2.24-1.4,4.07-1.12,6.59c0.28,2.52-0.14,4.91-1.96,6.73c-1.12,1.12-2.38,1.96-3.51,2.95
			c-1.96,1.54-3.51,3.37-4.63,5.75c-0.7-4.49,3.09-7.43,5.75-10.1c1.82-1.96,1.68-4.07,1.96-6.59
			C34.9,62.23,36.17,60.55,37.99,59.29"/>
		<path class="st1" d="M25.79,84.96c0.28,2.95-2.38,5.89-4.63,7.29c-2.38,1.4-5.05,2.38-7.29,4.07c0.28-2.81,3.65-4.91,5.75-6.31
			C21.86,88.74,23.96,86.78,25.79,84.96"/>
		<path class="st1" d="M42.48,61.25c-0.28,1.82-0.42,3.65-0.14,5.47c0.28,1.82,0.98,3.51,1.68,5.19c1.26,3.79-0.14,8.56-2.81,11.5
			c0.42-3.65,1.12-7.57-0.14-11.22C39.81,68.54,39.67,64.2,42.48,61.25"/>
		<path class="st1" d="M36.87,75.7c1.68,3.51-0.56,7.85-3.09,10.1c-1.26,1.26-2.52,2.52-2.52,4.49c-0.14,1.82,0.42,3.51,1.12,5.19
			c-3.65-2.38-4.63-7.43-1.54-10.66C33.5,82.01,35.89,79.48,36.87,75.7"/>
		<path class="st1" d="M47.25,59.29c-1.4,4.07,0,7.43,2.81,10.52c1.82,2.1,4.91,7.15,1.54,9.26c1.26-3.37-2.52-6.31-4.49-8.42
			C44.3,67.42,43.46,61.95,47.25,59.29"/>
		<path class="st1" d="M48.23,79.06c-1.12,3.37-0.14,6.17,1.68,8.98c1.12,1.82,2.52,5.61,0.7,7.43c0-2.52-2.1-4.77-3.51-6.73
			C45,85.8,44.58,80.89,48.23,79.06"/>
		<path class="st1" d="M39.25,83.41c-0.84,2.67,0.98,4.91,2.38,6.87c0.7,0.98,2.81,5.19,0.56,5.89c0.56-1.54-2.52-3.93-3.23-4.91
			C37.29,89.3,35.89,84.67,39.25,83.41"/>
		<path class="st1" d="M52.16,59.85c-0.42,2.81,1.4,5.61,3.37,7.29c0.84,0.7,1.68,1.26,2.38,2.1c3.79,4.21,0.84,11.22-2.95,14.17
			c1.54-4.21,3.51-9.82-0.14-13.33C52.58,67.84,49.35,63.07,52.16,59.85"/>
		<path class="st1" d="M52.16,84.96c4.63,0.28,9.82,7.01,6.17,11.36c-0.7-2.1-1.26-4.21-2.52-6.03
			C54.68,88.46,53.28,86.78,52.16,84.96"/>
		<path class="st1" d="M56.93,59.85c4.35,2.95,7.15,8.56,8.7,13.47c0.56,1.82,0.98,3.79,1.12,5.75c0.28,2.24,0.84,5.47,3.09,6.59
			c-2.67,0.42-4.49-2.81-5.33-4.91c-0.56-1.82-0.98-3.79-1.4-5.61C61.69,69.81,59.59,64.48,56.93,59.85"/>
		<path class="st1" d="M61.13,82.29c1.26,3.23,2.95,6.03,5.75,8c0.7,0.56,1.54,1.12,2.1,1.68c0.42,0.42,2.52,3.09,0.84,3.37
			c0.84-1.26-3.65-2.38-4.21-2.95C62.12,90.85,59.17,86.22,61.13,82.29"/>
		<path class="st1" d="M70.95,83.41c2.81,0.7,5.61,3.23,5.89,6.31c0.42,2.95,3.09,4.49,5.47,5.75c-2.95,0.7-7.01-0.84-8-4.07
			c-0.28-0.98-0.28-1.96-0.56-2.95C73.2,86.64,71.93,85.1,70.95,83.41"/>
	</g>
	<g>
		<path class="st2" d="M60.01,52.41c1.96-1.96,4.77-2.67,3.79-5.47c-1.68-4.91-10.1,7.85-6.17,0.42s-0.14-8.28-1.26-6.59
			c-1.12,1.68-3.93,17.53-4.63,8.14c-0.7-9.54,10.1-38.57,4.21-34.51s-5.05,30.44-8.42,34.93c-3.37,4.21,3.51-29.32,0.84-32.68
			c-1.96-2.52-6.87-1.96-4.77,19.5c2.1,21.6-1.4,10.1-3.23,4.63c-1.82-5.47-3.79-3.51-1.82,6.45c1.54,7.85-2.1-3.23-6.45-11.5
			s-14.03-3.65-5.75,2.38c7.57,5.61,8.7,10.52,10.24,14.59c-1.54,1.4-2.81,4.49-4.21,9.12c-0.98,3.23,2.52-2.1,3.93-3.65
			c1.54-1.54,2.38,4.63,4.63,0.98c2.24-3.65,4.07-1.68,8,2.95c3.79,4.63,6.17,3.37,7.85,1.12s2.38-2.67,5.89-0.28
			s1.26-0.98,1.26-0.98C62.54,60.27,60.99,53.96,60.01,52.41"/>
		<path class="st2" d="M59.17,37.69c2.38-2.67,3.51-10.66,1.68-8C59.17,32.36,57.77,39.23,59.17,37.69z"/>
		<path class="st2" d="M70.11,37.26c-2.24,2.24-7.57,8.56-4.63,7.57C67.73,44.14,72.21,35.02,70.11,37.26"/>
		<path class="st2" d="M68.85,24.78c-2.52,1.4-6.73,12.06-7.01,16.13C61.55,45.26,71.23,23.52,68.85,24.78"/>
		<path class="st2" d="M36.87,34.32c4.49,3.23-4.63-13.89-5.33-10.52C30.98,27.17,34.9,32.92,36.87,34.32"/>
	</g>
</g>
<g>
</g>
<g>
</g>
<g>
</g>
<g>
</g>
<g>
</g>
<g>
</g>
<g>
</g>
<g>
</g>
<g>
</g>
<g>
</g>
<g>
</g>
<g>
</g>
<g>
</g>
<g>
</g>
<g>
</g>
</svg>
