<?xml version="1.0" encoding="utf-8"?>
<!-- Generator: Adobe Illustrator 28.0.0, SVG Export Plug-In . SVG Version: 6.00 Build 0)  -->
<svg version="1.1" id="图层_1" xmlns="http://www.w3.org/2000/svg" xmlns:xlink="http://www.w3.org/1999/xlink" x="0px" y="0px"
	 viewBox="0 0 625 114" style="enable-background:new 0 0 625 114;" xml:space="preserve">
<style type="text/css">
	.st0{fill:#FFFFFF;}
	.st1{fill:#FF8F1F;}
	.st2{fill:#FFB636;}
	.st3{fill:#FFD469;}
</style>
<g>
	<path class="st0" d="M125.48,59.01c0-5.08,0.84-9.99,2.52-14.72c1.68-4.73,4.09-8.93,7.23-12.59c3.14-3.66,6.91-6.59,11.3-8.78
		c4.39-2.19,9.3-3.29,14.72-3.29H200v16.53h-38.36c-1.98,0-4.03,0.65-6.13,1.94c-2.11,1.29-4.05,2.99-5.81,5.1
		c-1.77,2.11-3.23,4.54-4.39,7.3c-1.16,2.76-1.74,5.55-1.74,8.4c0,2.84,0.56,5.64,1.68,8.4c1.12,2.76,2.58,5.21,4.39,7.36
		c1.81,2.15,3.83,3.87,6.07,5.17c2.24,1.29,4.48,1.94,6.72,1.94H200v16.53h-39.13c-5.68,0-10.72-1.18-15.11-3.55
		c-4.39-2.37-8.1-5.44-11.11-9.23c-3.01-3.79-5.29-8.01-6.85-12.66C126.25,68.18,125.48,63.57,125.48,59.01z"/>
	<path class="st0" d="M211.75,19.61h46.63c4.13,0,7.71,0.73,10.72,2.2c3.01,1.47,5.51,3.38,7.49,5.75c1.98,2.37,3.44,5.1,4.39,8.2
		c0.95,3.1,1.42,6.29,1.42,9.56c0,5.94-1.06,11.02-3.16,15.24c-2.11,4.22-5.62,7.32-10.53,9.3l22.47,28.41h-24.54l-34.87-42.11
		h24.93c1.03,0,2-0.34,2.91-1.03c0.9-0.69,1.68-1.55,2.32-2.58c0.65-1.03,1.16-2.15,1.55-3.36c0.39-1.21,0.58-2.28,0.58-3.23
		c0-0.77-0.13-1.63-0.39-2.58c-0.26-0.95-0.65-1.87-1.16-2.78c-0.52-0.9-1.12-1.66-1.81-2.26c-0.69-0.6-1.46-0.9-2.32-0.9h-46.63
		V19.61z"/>
	<path class="st0" d="M327.35,19.61h19.37l38.75,78.66h-21.96l-10.07-20.92h-21.31l-7.49-9.82l-13.95,30.74h-21.96L327.35,19.61z
		 M327.47,60.56h19.12l-9.69-20.02L327.47,60.56z"/>
	<path class="st0" d="M441.65,19.61v16.53h-23.64v62.12h-20.02V36.15h-23.51V19.61H441.65z"/>
	<path class="st0" d="M516.95,19.61v16.53H453.4V19.61H516.95z M453.4,48.54h63.54v16.66H453.4V48.54z M453.4,81.74h63.54v16.53
		H453.4V81.74z"/>
	<path class="st0" d="M528.57,19.61h46.63c4.13,0,7.7,0.73,10.72,2.2c3.01,1.47,5.51,3.38,7.49,5.75c1.98,2.37,3.44,5.1,4.39,8.2
		c0.95,3.1,1.42,6.29,1.42,9.56c0,5.94-1.05,11.02-3.16,15.24c-2.11,4.22-5.62,7.32-10.53,9.3L608,98.27h-24.54l-34.87-42.11h24.93
		c1.03,0,2-0.34,2.9-1.03c0.91-0.69,1.68-1.55,2.33-2.58c0.64-1.03,1.16-2.15,1.55-3.36c0.39-1.21,0.58-2.28,0.58-3.23
		c0-0.77-0.13-1.63-0.39-2.58c-0.26-0.95-0.65-1.87-1.16-2.78c-0.52-0.9-1.12-1.66-1.81-2.26c-0.69-0.6-1.46-0.9-2.32-0.9h-46.63
		V19.61z"/>
</g>
<g>
	<path class="st1" d="M62.59,105c-33.27,0-42.15-34.68-38.14-57.4c0.17-0.99,1.47-1.27,2.04-0.44c1.75,2.57,3.31,6.28,5.88,5.96
		c3.88-0.48,6.56-34.69,29.53-44.31c0.73-0.31,1.49,0.27,1.41,1.06c-1.14,11.14,5.56,27.1,17.41,27.1c6.8,0,11.45-5.42,13.77-10.87
		c0.71-1.65,3.12-1.45,3.53,0.31C102.17,44.36,113.26,105,62.59,105L62.59,105z"/>
	<path class="st2" d="M50.93,71.56c0.78-0.66,1.97-0.21,2.15,0.8c0.42,2.35,1.78,6.4,6.26,6.4c5.39,0,9.05-14.84,10.01-19.2
		c0.16-0.72,0.86-1.21,1.58-1.06c13.48,2.74,20.03,46.5-9.6,46.5C39.76,105,44.65,76.84,50.93,71.56L50.93,71.56z M87.75,24.17
		c0.47-3.71-6.31,6.45-6.31,6.45S86.61,33.06,87.75,24.17z M19.43,79.57c0.14-1.58-1.89-5.82-2.25-4.14
		C16.31,79.44,19.28,81.15,19.43,79.57z"/>
	<path class="st3" d="M73.68,75.07c-0.51-2.11-2.32,2.79-2.09,4.78C71.82,81.84,74.89,80.11,73.68,75.07z"/>
</g>
<g>
</g>
<g>
</g>
<g>
</g>
<g>
</g>
<g>
</g>
<g>
</g>
<g>
</g>
<g>
</g>
<g>
</g>
<g>
</g>
<g>
</g>
<g>
</g>
<g>
</g>
<g>
</g>
<g>
</g>
</svg>
